<?xml version="1.0" encoding="UTF-8"?> <svg xmlns="http://www.w3.org/2000/svg" width="237" height="88" viewBox="0 0 237 88" fill="none"><g clip-path="url(#clip0_7284_694)"><path d="M236.682 28.0642H221.839V5.76611H224.223V25.7122H236.682V28.0642Z" fill="#2D292A"></path><path d="M98.9663 79.8254H97.3347V67.9062H105.484V69.5217H98.9663V73.5394H104.623V75.1297H98.9663V79.8254Z" fill="#00AEEF"></path><path d="M116.763 79.6746C113.358 79.6746 110.588 76.9208 110.588 73.5309C110.588 70.141 113.358 67.3872 116.763 67.3872C120.169 67.3872 122.922 70.141 122.922 73.5309C122.922 76.9208 120.16 79.6746 116.763 79.6746ZM116.763 69.011C114.262 69.011 112.237 71.0366 112.237 73.5309C112.237 76.0252 114.27 78.0424 116.763 78.0424C119.257 78.0424 121.282 76.0168 121.282 73.5309C121.282 71.045 119.257 69.011 116.763 69.011Z" fill="#00AEEF"></path><path d="M133.18 79.6748C130.117 79.6748 128.143 77.7915 128.143 74.8787V67.5967H129.774V74.8536C129.774 76.8625 131.055 78.0594 133.188 78.0594C135.322 78.0594 136.594 76.8625 136.594 74.8536V67.5967H138.225V74.8787C138.225 77.7915 136.242 79.6748 133.188 79.6748" fill="#00AEEF"></path><path d="M155.027 79.4656H153.696L146.609 70.5765V79.4656H144.978V67.5967H146.325L153.403 76.5025V67.5967H155.027V79.4656Z" fill="#00AEEF"></path><path d="M166.691 79.4656H161.963V67.5967H166.691C170.063 67.5967 172.238 69.9236 172.238 73.5311C172.238 77.1387 170.063 79.4656 166.691 79.4656ZM163.586 77.8501H166.64C169.05 77.8501 170.606 76.151 170.606 73.5311C170.606 70.9113 169.05 69.2121 166.64 69.2121H163.586V77.8501Z" fill="#00AEEF"></path><path d="M187.918 79.4656H186.128L184.998 76.9629H178.555L177.434 79.4656H175.627L181.074 67.5967H182.488L187.926 79.4656H187.918ZM179.275 75.3809H184.27L181.777 69.8566L179.283 75.3809H179.275Z" fill="#00AEEF"></path><path d="M195.022 79.4656H193.39V69.2121H189.399V67.5967H199.021V69.2121H195.022V79.4656Z" fill="#00AEEF"></path><path d="M205.021 67.5967H203.389V79.4656H205.021V67.5967Z" fill="#00AEEF"></path><path d="M216.241 79.6746C212.835 79.6746 210.066 76.9208 210.066 73.5309C210.066 70.141 212.835 67.3872 216.241 67.3872C219.646 67.3872 222.399 70.141 222.399 73.5309C222.399 76.9208 219.638 79.6746 216.241 79.6746ZM216.241 69.011C213.747 69.011 211.714 71.0366 211.714 73.5309C211.714 76.0252 213.747 78.0424 216.241 78.0424C218.734 78.0424 220.759 76.0168 220.759 73.5309C220.759 71.045 218.734 69.011 216.241 69.011Z" fill="#00AEEF"></path><path d="M237 79.4656H235.661L228.583 70.5765V79.4656H226.951V67.5967H228.29L235.368 76.5025V67.5967H237V79.4656Z" fill="#00AEEF"></path><path d="M131.297 28.3486C124.922 28.3486 119.734 23.1842 119.734 16.8312C119.734 10.4783 124.922 5.32227 131.297 5.32227C137.673 5.32227 142.836 10.4867 142.836 16.8312C142.836 23.1758 137.656 28.3486 131.297 28.3486ZM131.297 7.69939C126.244 7.69939 122.135 11.8008 122.135 16.8396C122.135 21.8785 126.244 25.9798 131.297 25.9798C136.351 25.9798 140.434 21.8785 140.434 16.8396C140.434 11.8008 136.334 7.69939 131.297 7.69939Z" fill="#2D292A"></path><path d="M157.353 27.9389H154.985V19.8366L145.789 5.74121H148.584L156.156 17.3339L163.762 5.74121H166.557L157.353 19.8115V27.9389Z" fill="#2D292A"></path><path d="M174.556 27.9389H172.188V5.74121H187.123V8.08486H174.556V16.5973H185.441V18.8907H174.556V27.9389Z" fill="#2D292A"></path><path d="M203.23 28.349C197.54 28.349 193.867 24.8587 193.867 19.4515V5.74121H196.235V19.4013C196.235 23.4776 198.913 26.0138 203.23 26.0138C207.548 26.0138 210.225 23.4776 210.225 19.4013V5.74121H212.593V19.4515C212.593 24.8587 208.92 28.349 203.23 28.349Z" fill="#2D292A"></path><path d="M116.102 58.9501H113.735V49.1904H99.753V58.9501H97.3767V36.7607H99.753V46.9054H113.735V36.7607H116.102V58.9501Z" fill="#2D292A"></path><path d="M140.685 58.9501H125.198V36.7607H140.685V39.1044H127.565V46.9054H138.727V49.1904H127.565V56.6064H140.685V58.9501Z" fill="#2D292A"></path><path d="M169.259 58.9501H166.649L164.448 54.1122H151.462L149.287 58.9501H146.651L156.834 36.7524H159.076L169.259 58.9501ZM152.517 51.8271H163.394L157.955 39.7992L152.517 51.8271Z" fill="#2D292A"></path><path d="M194.043 58.9501H191.148L185.742 51.35C185.583 51.3584 185.425 51.3584 185.266 51.3584H177.802V58.9501H175.434V36.7524H185.266C189.792 36.7524 192.955 39.749 192.955 44.0261C192.955 47.2068 191.181 49.7764 188.286 50.8478L194.051 58.9418L194.043 58.9501ZM177.802 49.0733H185.207C188.914 49.0733 190.604 46.4786 190.604 44.0596C190.604 41.6406 188.914 39.0459 185.207 39.0459H177.802V49.0733Z" fill="#2D292A"></path><path d="M208.719 58.9501H206.351V39.1044H198.628V36.7607H216.467V39.1044H208.719V58.9501Z" fill="#2D292A"></path><path d="M105.116 28.349C101.267 28.349 97.3767 25.8966 97.3767 20.4141V18.2211H99.7781V20.4141C99.7781 24.5406 102.656 26.0054 105.116 26.0054C107.576 26.0054 110.43 24.5406 110.43 20.4141V5.74121H112.797V20.4141C112.797 25.8966 108.94 28.349 105.108 28.349" fill="#2D292A"></path><path d="M66.9704 0.00741624C83.7048 -0.436203 89.7961 19.1249 86.6333 31.0942C86.6333 31.0942 84.2487 39.7908 75.9902 48.8139L58.712 67.6133C58.712 67.6133 55.8504 71.3715 51.8927 74.6275C52.5119 70.3001 53.4072 61.9634 53.4072 61.9634C55.0974 50.7223 49.4914 39.975 49.4914 39.975C46.2198 33.3709 42.1784 28.5915 38.1538 25.1598L39.9277 21.7447C39.9277 21.7447 50.2444 0.451035 66.9704 0.00741624Z" fill="#00AEEF"></path><path d="M49.491 39.9759C49.491 39.9759 55.1054 50.7316 53.4069 61.9643C53.4069 61.9643 52.5116 70.3094 51.8924 74.6284C46.5374 79.0395 39.1575 82.4964 34.154 74.3606C25.4604 60.2317 24.3643 52.8827 31.5601 37.8331L38.1535 25.1523C42.1865 28.5841 46.2194 33.3635 49.491 39.9675" fill="#0678BE"></path><path d="M51.8926 74.6279C51.8173 75.172 51.7337 75.6658 51.6751 76.0592C50.8384 81.0144 47.1986 93.9798 33.6522 84.4545C33.6522 84.4545 22.7414 76.2601 12.3075 62.9516C1.89032 49.6597 -1.97532 37.138 0.944824 28.7929C0.944824 28.7929 4.78536 14.8817 19.9718 16.4218C19.9718 16.4218 29.0335 17.3844 38.1453 25.1602L31.552 37.8411C24.3646 52.8906 25.4523 60.2396 34.1458 74.3685C39.1494 82.5043 46.5293 79.0474 51.8843 74.6363" fill="#99C221"></path></g><defs><clipPath id="clip0_7284_694"><rect width="237" height="87.8598" fill="white"></rect></clipPath></defs></svg> 